<svg xmlns="http://www.w3.org/2000/svg" width="140" height="41" viewBox="0 0 140 41">
    <defs>
        <linearGradient id="a" x1="0%" x2="69.306%" y1="58.476%" y2="39.083%">
            <stop offset="0%" stop-color="#01E2FF"/>
            <stop offset="100%" stop-color="#01C4FF"/>
        </linearGradient>
        <linearGradient id="b" x1="50%" x2="50%" y1="0%" y2="38.913%">
            <stop offset="0%" stop-color="#FBDA09"/>
            <stop offset="100%" stop-color="#FFBC00"/>
        </linearGradient>
        <linearGradient id="c" x1="86.245%" x2="-50.146%" y1="17.846%" y2="194.814%">
            <stop offset="0%" stop-color="#FF3A44"/>
            <stop offset="100%" stop-color="#C31162"/>
        </linearGradient>
        <linearGradient id="d" x1="20.281%" x2="83.82%" y1="20.102%" y2="83.621%">
            <stop offset="0%" stop-color="#28D781"/>
            <stop offset="100%" stop-color="#02F076"/>
        </linearGradient>
    </defs>
    <g fill="none" fill-rule="evenodd">
        <path fill="#000" d="M134.483 41H5.173C2.326 41 0 38.694 0 35.875V5.125C0 2.306 2.327 0 5.172 0h129.31c2.845 0 5.173 2.306 5.173 5.125v30.75c0 2.819-2.328 5.125-5.172 5.125"/>
        <path fill="#A6A6A6" d="M134.483 0H5.173C2.326 0 0 2.306 0 5.125v30.75C0 38.694 2.327 41 5.172 41h129.31c2.845 0 5.173-2.306 5.173-5.125V5.125c0-2.819-2.328-5.125-5.172-5.125m0 .82c2.396 0 4.344 1.931 4.344 4.305v30.75c0 2.374-1.948 4.305-4.344 4.305H5.173c-2.397 0-4.346-1.931-4.346-4.305V5.125C.827 2.75 2.777.82 5.172.82h129.31"/>
        <path fill="#FFF" d="M49.054 10.5c0 .858-.257 1.542-.771 2.052-.585.607-1.345.91-2.28.91-.896 0-1.658-.307-2.284-.923-.628-.615-.94-1.379-.94-2.289 0-.911.312-1.674.94-2.29.626-.615 1.388-.922 2.284-.922.444 0 .87.086 1.273.257.405.172.729.4.972.687l-.547.541c-.41-.486-.976-.73-1.698-.73-.654 0-1.219.228-1.696.683-.477.456-.715 1.046-.715 1.774 0 .727.238 1.318.715 1.773a2.368 2.368 0 0 0 1.696.683c.693 0 1.27-.229 1.734-.687.3-.298.473-.712.519-1.245h-2.253v-.74h3.007c.029.162.044.316.044.465"/>
        <path stroke="#FFF" stroke-width=".5" d="M49.054 10.5c0 .858-.257 1.542-.771 2.052-.585.607-1.345.91-2.28.91-.896 0-1.658-.307-2.284-.923-.628-.615-.94-1.379-.94-2.289 0-.911.312-1.674.94-2.29.626-.615 1.388-.922 2.284-.922.444 0 .87.086 1.273.257.405.172.729.4.972.687l-.547.541c-.41-.486-.976-.73-1.698-.73-.654 0-1.219.228-1.696.683-.477.456-.715 1.046-.715 1.774 0 .727.238 1.318.715 1.773a2.368 2.368 0 0 0 1.696.683c.693 0 1.27-.229 1.734-.687.3-.298.473-.712.519-1.245h-2.253v-.74h3.007c.029.162.044.316.044.465z"/>
        <path fill="#FFF" d="M53.822 7.93h-2.826v1.95h2.547v.74h-2.547v1.949h2.826v.756h-3.624v-6.15h3.624z"/>
        <path stroke="#FFF" stroke-width=".5" d="M53.822 7.93h-2.826v1.95h2.547v.74h-2.547v1.949h2.826v.756h-3.624v-6.15h3.624z"/>
        <path fill="#FFF" d="M57.185 13.325h-.798V7.93h-1.734v-.755h4.266v.755h-1.734z"/>
        <path stroke="#FFF" stroke-width=".5" d="M57.185 13.325h-.798V7.93h-1.734v-.755h4.266v.755h-1.734z"/>
        <path fill="#FFF" d="M62.005 13.325h.797v-6.15h-.797z"/>
        <path stroke="#FFF" stroke-width=".5" d="M62.005 13.325h.797v-6.15h-.797z"/>
        <path fill="#FFF" d="M66.34 13.325h-.798V7.93h-1.734v-.755h4.265v.755H66.34z"/>
        <path stroke="#FFF" stroke-width=".5" d="M66.34 13.325h-.798V7.93h-1.734v-.755h4.265v.755H66.34z"/>
        <path fill="#FFF" d="M72.185 12.015c.46.461 1.021.691 1.687.691.664 0 1.226-.23 1.686-.69.46-.462.69-1.05.69-1.766 0-.715-.23-1.305-.69-1.765a2.29 2.29 0 0 0-1.686-.692c-.666 0-1.227.23-1.687.692-.458.46-.689 1.05-.689 1.765 0 .716.231 1.304.69 1.765m3.961.515c-.61.622-1.368.932-2.275.932-.908 0-1.666-.31-2.275-.932-.61-.621-.915-1.381-.915-2.28 0-.899.304-1.66.915-2.28.61-.622 1.367-.932 2.275-.932.902 0 1.658.311 2.271.936.613.624.919 1.382.919 2.276 0 .899-.305 1.659-.915 2.28"/>
        <path stroke="#FFF" stroke-width=".5" d="M72.185 12.015c.46.461 1.021.691 1.687.691.664 0 1.226-.23 1.686-.69.46-.462.69-1.05.69-1.766 0-.715-.23-1.305-.69-1.765a2.29 2.29 0 0 0-1.686-.692c-.666 0-1.227.23-1.687.692-.458.46-.689 1.05-.689 1.765 0 .716.231 1.304.69 1.765zm3.962.515c-.61.622-1.368.932-2.275.932-.908 0-1.666-.31-2.275-.932-.61-.621-.915-1.381-.915-2.28 0-.899.304-1.66.915-2.28.61-.622 1.367-.932 2.275-.932.902 0 1.658.311 2.271.936.613.624.919 1.382.919 2.276 0 .899-.305 1.659-.915 2.28z"/>
        <path fill="#FFF" d="M78.181 13.325v-6.15h.97l3.017 4.784h.035l-.035-1.185v-3.6h.799v6.15h-.833L78.979 8.31h-.035l.035 1.185v3.83z"/>
        <path stroke="#FFF" stroke-width=".5" d="M78.181 13.325v-6.15h.97l3.017 4.784h.035l-.035-1.185v-3.6h.799v6.15h-.833L78.979 8.31h-.035l.035 1.185v3.83z"/>
        <path fill="#FFF" d="M110.623 30.75h1.93V17.936h-1.93V30.75zm17.387-8.198l-2.213 5.556h-.066l-2.297-5.556h-2.079l3.445 7.764-1.964 4.32h2.013l5.308-12.084h-2.147zm-10.948 6.742c-.631 0-1.513-.313-1.513-1.088 0-.988 1.098-1.368 2.047-1.368.847 0 1.247.182 1.763.428a2.333 2.333 0 0 1-2.297 2.029zm.234-7.023c-1.398 0-2.845.611-3.444 1.962l1.713.71c.366-.71 1.048-.94 1.764-.94.998 0 2.013.593 2.03 1.648v.132c-.35-.198-1.099-.494-2.013-.494-1.848 0-3.728 1.005-3.728 2.884 0 1.715 1.515 2.82 3.211 2.82 1.298 0 2.014-.577 2.462-1.254h.068v.99h1.864v-4.913c0-2.275-1.715-3.545-3.927-3.545zm-11.93 1.841h-2.745V19.72h2.745a2.23 2.23 0 0 1 2.263 2.196c0 .993-.82 2.196-2.263 2.196zm-.05-6.177h-4.625V30.75h1.93v-4.854h2.696c2.139 0 4.242-1.536 4.242-3.98 0-2.445-2.103-3.98-4.242-3.98zM80.096 29.297c-1.334 0-2.45-1.106-2.45-2.625 0-1.537 1.116-2.66 2.45-2.66 1.316 0 2.35 1.123 2.35 2.66 0 1.519-1.034 2.625-2.35 2.625zm2.216-6.027h-.067c-.433-.512-1.267-.975-2.316-.975-2.2 0-4.217 1.915-4.217 4.377 0 2.443 2.017 4.342 4.217 4.342 1.05 0 1.883-.462 2.316-.99h.067v.627c0 1.668-.9 2.559-2.35 2.559-1.183 0-1.917-.842-2.217-1.552l-1.683.694c.483 1.155 1.766 2.576 3.9 2.576 2.267 0 4.184-1.321 4.184-4.542V22.56H82.31v.71zm3.167 7.48h1.933V17.936h-1.933V30.75zm4.783-4.227c-.05-1.685 1.317-2.543 2.3-2.543.767 0 1.417.38 1.634.924l-3.934 1.619zm6-1.454c-.368-.973-1.484-2.774-3.767-2.774-2.266 0-4.15 1.767-4.15 4.36 0 2.444 1.867 4.36 4.366 4.36 2.017 0 3.183-1.222 3.668-1.933l-1.5-.99c-.501.726-1.184 1.205-2.168 1.205-.982 0-1.683-.446-2.132-1.322l5.882-2.41-.2-.496zm-46.87-1.436v1.85h4.465c-.132 1.04-.483 1.8-1.016 2.327-.65.645-1.667 1.355-3.45 1.355-2.75 0-4.9-2.196-4.9-4.92 0-2.725 2.15-4.923 4.9-4.923 1.484 0 2.567.578 3.367 1.323l1.316-1.305c-1.117-1.057-2.6-1.867-4.683-1.867-3.767 0-6.934 3.04-6.934 6.771s3.167 6.77 6.934 6.77c2.033 0 3.566-.66 4.766-1.899 1.233-1.222 1.617-2.94 1.617-4.326 0-.429-.033-.826-.1-1.156H49.39zm11.46 5.664c-1.333 0-2.483-1.09-2.483-2.642 0-1.57 1.15-2.642 2.482-2.642 1.334 0 2.484 1.073 2.484 2.642 0 1.552-1.15 2.642-2.484 2.642zm0-7.002c-2.434 0-4.417 1.833-4.417 4.36 0 2.51 1.983 4.36 4.416 4.36 2.434 0 4.418-1.85 4.418-4.36 0-2.527-1.984-4.36-4.418-4.36zm9.635 7.002c-1.334 0-2.484-1.09-2.484-2.642 0-1.57 1.15-2.642 2.484-2.642 1.333 0 2.482 1.073 2.482 2.642 0 1.552-1.149 2.642-2.482 2.642zm0-7.002c-2.434 0-4.417 1.833-4.417 4.36 0 2.51 1.983 4.36 4.417 4.36 2.433 0 4.416-1.85 4.416-4.36 0-2.527-1.983-4.36-4.416-4.36z"/>
        <g fill="url(#a)" transform="translate(10 7.175)">
            <path d="M.796.551c-.301.316-.48.806-.48 1.44v22.67c0 .635.179 1.124.48 1.439l.075.074L13.69 13.476v-.3L.87.476.796.552z"/>
        </g>
        <g fill="url(#b)" transform="translate(23.448 16.058)">
            <path d="M.24 4.293v.3l4.272 4.234.097-.054 5.062-2.85c1.445-.814 1.445-2.147 0-2.96L4.609.113 4.513.06.24 4.293z"/>
        </g>
        <g fill="url(#c)" transform="translate(10.345 20.5)">
            <path d="M.451 12.775c.476.5 1.263.562 2.15.063l15.111-8.507L13.344 0 .45 12.775z"/>
        </g>
        <g fill="url(#d)" transform="translate(10.345 7.175)">
            <path d="M.451.551l12.893 12.775 4.368-4.33L2.601.49C2.185.254 1.79.143 1.44.143c-.397 0-.738.143-.99.408"/>
        </g>
        <path fill="#000" d="M27.96 24.735l-15.015 8.454c-.84.472-1.59.44-2.073.01l-.076.077.075.074h.001c.482.43 1.233.461 2.073-.011l15.112-8.509-.096-.095z"/>
        <path fill="#000" d="M10.795 33.126c-.3-.315-.479-.805-.479-1.44v.15c0 .634.178 1.124.48 1.44l.076-.076-.077-.074zM33.119 21.831l-5.158 2.904.096.095 5.062-2.85c.723-.406 1.084-.942 1.084-1.478-.061.485-.429.96-1.084 1.33"/>
        <path fill="#FFF" d="M12.945 7.813L33.12 19.17c.655.37 1.023.845 1.084 1.33 0-.535-.361-1.072-1.084-1.48L12.945 7.665c-1.446-.814-2.629-.138-2.629 1.502v.15c0-1.64 1.183-2.316 2.63-1.503"/>
    </g>
</svg>
