<?xml version="1.0" encoding="UTF-8" standalone="no"?>
<svg width="200px" height="61px" viewBox="0 0 200 61" version="1.1" xmlns="http://www.w3.org/2000/svg" xmlns:xlink="http://www.w3.org/1999/xlink">
    <!-- Generator: Sketch 50.2 (55047) - http://www.bohemiancoding.com/sketch -->
    <title>app-store-2</title>
    <desc>Created with Sketch.</desc>
    <defs>
        <rect id="path-1" x="0" y="0" width="199.977429" height="60.1503759" rx="10"></rect>
    </defs>
    <g id="Page-1" stroke="none" stroke-width="1" fill="none" fill-rule="evenodd">
        <g id="GTD_Home_2@2x" transform="translate(-782.000000, -2216.000000)">
            <g id="app-store-2" transform="translate(782.000000, 2216.000000)">
                <g id="app-store">
                    <g id="backfround-copy" stroke-linejoin="square">
                        <rect stroke="#A6A6A6" stroke-width="0.9375" fill="#000000" fill-rule="evenodd" x="0.46875" y="0.46875" width="199.039929" height="59.2128759" rx="10"></rect>
                        <rect stroke="#8F8F8F" stroke-width="0.5" x="0.25" y="0.25" width="199.477429" height="59.6503759" rx="10"></rect>
                    </g>
                    <path d="M58.2413064,19.7544643 C55.8858083,19.7544643 54.4172932,18.0568609 54.4172932,15.3136748 C54.4172932,12.5646147 55.8799342,10.8670113 58.2354323,10.8670113 C60.1033835,10.8670113 61.5484023,12.0770677 61.7598684,13.8040414 L60.449953,13.8040414 C60.2032425,12.7643327 59.3515038,12.0946898 58.2354323,12.0946898 C56.7140508,12.0946898 55.762453,13.3341165 55.762453,15.3136748 C55.762453,17.287359 56.7140508,18.5267857 58.2413064,18.5267857 C59.3632519,18.5267857 60.2149906,17.9217575 60.449953,16.9642857 L61.7598684,16.9642857 C61.524906,18.6383929 60.1327538,19.7544643 58.2413064,19.7544643 Z M66.0420583,18.550282 C67.1346335,18.550282 67.7572838,17.7396617 67.7572838,16.3475094 C67.7572838,14.9612312 67.1346335,14.1506109 66.0420583,14.1506109 C64.943609,14.1506109 64.3268327,14.9612312 64.3268327,16.3475094 C64.3268327,17.7455357 64.943609,18.550282 66.0420583,18.550282 Z M66.0420583,19.6722274 C64.1682331,19.6722274 63.0227914,18.4210526 63.0227914,16.3475094 C63.0227914,14.2857143 64.1741071,13.0286654 66.0420583,13.0286654 C67.9041353,13.0286654 69.0554511,14.2857143 69.0554511,16.3475094 C69.0554511,18.4210526 67.9100094,19.6722274 66.0420583,19.6722274 Z M70.5709586,19.5488722 L70.5709586,13.1520207 L71.7868891,13.1520207 L71.7868891,14.1799812 L71.8808741,14.1799812 C72.1628289,13.4574718 72.8089756,13.0286654 73.6607143,13.0286654 C74.5359492,13.0286654 75.1409774,13.480968 75.4229323,14.1799812 L75.5227914,14.1799812 C75.8458647,13.480968 76.5801222,13.0286654 77.4671053,13.0286654 C78.7593985,13.0286654 79.5112782,13.8099154 79.5112782,15.1433271 L79.5112782,19.5488722 L78.2483553,19.5488722 L78.2483553,15.4722744 C78.2483553,14.6087876 77.8371711,14.1858553 77.0089286,14.1858553 C76.1924342,14.1858553 75.6578947,14.7732613 75.6578947,15.525141 L75.6578947,19.5488722 L74.418468,19.5488722 L74.418468,15.3489192 C74.418468,14.6264098 73.9367951,14.1858553 73.1849154,14.1858553 C72.4154135,14.1858553 71.8338816,14.8143797 71.8338816,15.6367481 L71.8338816,19.5488722 L70.5709586,19.5488722 Z M81.3087406,19.5488722 L81.3087406,13.1520207 L82.5657895,13.1520207 L82.5657895,19.5488722 L81.3087406,19.5488722 Z M81.937265,12.0300752 C81.4673402,12.0300752 81.1207707,11.6952538 81.1207707,11.2605733 C81.1207707,10.8200188 81.4673402,10.4851974 81.937265,10.4851974 C82.4071898,10.4851974 82.7537594,10.8200188 82.7537594,11.2605733 C82.7537594,11.6952538 82.4071898,12.0300752 81.937265,12.0300752 Z M84.4219925,19.5488722 L84.4219925,13.1520207 L85.6379229,13.1520207 L85.6379229,14.1682331 L85.7319079,14.1682331 C86.0432331,13.4574718 86.6776316,13.0286654 87.6409774,13.0286654 C89.0683741,13.0286654 89.8554981,13.8862782 89.8554981,15.4076598 L89.8554981,19.5488722 L88.5925752,19.5488722 L88.5925752,15.724859 C88.5925752,14.6968985 88.1461466,14.1858553 87.2121711,14.1858553 C86.2781955,14.1858553 85.6849154,14.8085056 85.6849154,15.8070959 L85.6849154,19.5488722 L84.4219925,19.5488722 Z M96.0408835,16.2711466 C96.0408835,14.9964756 95.3829887,14.1799812 94.3080357,14.1799812 C93.2213346,14.1799812 92.6104323,14.9964756 92.6104323,16.2711466 C92.6104323,17.5458177 93.2213346,18.362312 94.3080357,18.362312 C95.3888628,18.362312 96.0408835,17.5516917 96.0408835,16.2711466 Z M94.3256579,21.9924812 C92.7279135,21.9924812 91.6940789,21.2758459 91.5589756,20.1891447 L92.8512688,20.1891447 C92.9570019,20.6531955 93.4915414,20.9527726 94.3432801,20.9527726 C95.3947368,20.9527726 96.0173872,20.4534774 96.0173872,19.6076128 L96.0173872,18.3799342 L95.9234023,18.3799342 C95.5357143,19.0730733 94.8308271,19.4548872 93.949718,19.4548872 C92.3167293,19.4548872 91.306391,18.1919643 91.306391,16.2770207 C91.306391,14.3268327 92.3284774,13.0462876 93.9614662,13.0462876 C94.8425752,13.0462876 95.6120771,13.480968 95.9703947,14.1741071 L96.0702538,14.1741071 L96.0702538,13.1520207 L97.2803102,13.1520207 L97.2803102,19.6017387 C97.2803102,21.0643797 96.1348684,21.9924812 94.3256579,21.9924812 Z M102.255639,14.9612312 C102.255639,13.8275376 103.295348,13.0286654 104.740367,13.0286654 C106.179511,13.0286654 107.119361,13.6983083 107.242716,14.8261278 L106.03266,14.8261278 C105.915179,14.356203 105.457002,14.0566259 104.740367,14.0566259 C104.035479,14.0566259 103.50094,14.3914474 103.50094,14.8907425 C103.50094,15.2725564 103.824013,15.5133929 104.517152,15.6719925 L105.580357,15.918703 C106.796288,16.2006579 107.366071,16.7234492 107.366071,17.6632989 C107.366071,18.8674812 106.244126,19.6722274 104.71687,19.6722274 C103.195489,19.6722274 102.202773,18.9849624 102.091165,17.8512688 L103.354088,17.8512688 C103.512688,18.3446898 103.982613,18.650141 104.746241,18.650141 C105.533365,18.650141 106.0914,18.2976974 106.0914,17.7866541 C106.0914,17.4048402 105.791823,17.1581297 105.151551,17.0054041 L104.035479,16.7469455 C102.819549,16.4591165 102.255639,15.9128289 102.255639,14.9612312 Z M111.589521,18.550282 C112.682096,18.550282 113.304746,17.7396617 113.304746,16.3475094 C113.304746,14.9612312 112.682096,14.1506109 111.589521,14.1506109 C110.491071,14.1506109 109.874295,14.9612312 109.874295,16.3475094 C109.874295,17.7455357 110.491071,18.550282 111.589521,18.550282 Z M111.589521,19.6722274 C109.715695,19.6722274 108.570254,18.4210526 108.570254,16.3475094 C108.570254,14.2857143 109.72157,13.0286654 111.589521,13.0286654 C113.451598,13.0286654 114.602914,14.2857143 114.602914,16.3475094 C114.602914,18.4210526 113.457472,19.6722274 111.589521,19.6722274 Z M118.820489,18.550282 C119.913064,18.550282 120.535714,17.7396617 120.535714,16.3475094 C120.535714,14.9612312 119.913064,14.1506109 118.820489,14.1506109 C117.722039,14.1506109 117.105263,14.9612312 117.105263,16.3475094 C117.105263,17.7455357 117.722039,18.550282 118.820489,18.550282 Z M118.820489,19.6722274 C116.946664,19.6722274 115.801222,18.4210526 115.801222,16.3475094 C115.801222,14.2857143 116.952538,13.0286654 118.820489,13.0286654 C120.682566,13.0286654 121.833882,14.2857143 121.833882,16.3475094 C121.833882,18.4210526 120.68844,19.6722274 118.820489,19.6722274 Z M123.349389,19.5488722 L123.349389,13.1520207 L124.56532,13.1520207 L124.56532,14.1682331 L124.659305,14.1682331 C124.97063,13.4574718 125.605028,13.0286654 126.568374,13.0286654 C127.995771,13.0286654 128.782895,13.8862782 128.782895,15.4076598 L128.782895,19.5488722 L127.519972,19.5488722 L127.519972,15.724859 C127.519972,14.6968985 127.073543,14.1858553 126.139568,14.1858553 C125.205592,14.1858553 124.612312,14.8085056 124.612312,15.8070959 L124.612312,19.5488722 L123.349389,19.5488722 Z M136.548402,18.550282 C137.640977,18.550282 138.263628,17.7396617 138.263628,16.3475094 C138.263628,14.9612312 137.640977,14.1506109 136.548402,14.1506109 C135.449953,14.1506109 134.833177,14.9612312 134.833177,16.3475094 C134.833177,17.7455357 135.449953,18.550282 136.548402,18.550282 Z M136.548402,19.6722274 C134.674577,19.6722274 133.529135,18.4210526 133.529135,16.3475094 C133.529135,14.2857143 134.680451,13.0286654 136.548402,13.0286654 C138.410479,13.0286654 139.561795,14.2857143 139.561795,16.3475094 C139.561795,18.4210526 138.416353,19.6722274 136.548402,19.6722274 Z M141.077303,19.5488722 L141.077303,13.1520207 L142.293233,13.1520207 L142.293233,14.1682331 L142.387218,14.1682331 C142.698543,13.4574718 143.332942,13.0286654 144.296288,13.0286654 C145.723684,13.0286654 146.510808,13.8862782 146.510808,15.4076598 L146.510808,19.5488722 L145.247885,19.5488722 L145.247885,15.724859 C145.247885,14.6968985 144.801457,14.1858553 143.867481,14.1858553 C142.933506,14.1858553 142.340226,14.8085056 142.340226,15.8070959 L142.340226,19.5488722 L141.077303,19.5488722 Z" id="Coming-soon-on" fill="#FFFFFF"></path>
                    <path d="M55.3592486,46.714615 L58.7203426,46.714615 L51.3626536,26.0647722 L47.9591928,26.0647722 L40.6015038,46.714615 L43.8496198,46.714615 L45.7278783,41.2337489 L53.4951124,41.2337489 L55.3592486,46.714615 Z M49.4985174,29.8140853 L49.7385955,29.8140853 L52.6901445,38.5434021 L46.5328462,38.5434021 L49.4985174,29.8140853 Z M67.6323393,30.8730516 C65.5422472,30.8730516 63.7346,31.9320179 62.8025319,33.706502 L62.576576,33.706502 L62.576576,31.130638 L59.6532715,31.130638 L59.6532715,51.7661704 L62.689554,51.7661704 L62.689554,44.3534064 L62.9296321,44.3534064 C63.7346,45.9990972 65.471636,46.9722014 67.6605838,46.9722014 C71.5442009,46.9722014 74.0155935,43.8668543 74.0155935,38.9154713 C74.0155935,33.9640884 71.5442009,30.8730516 67.6323393,30.8730516 L67.6323393,30.8730516 Z M66.7708824,44.2103028 C64.2288785,44.2103028 62.633065,42.1782323 62.633065,38.9297817 C62.633065,35.6670207 64.2288785,33.6349502 66.7850047,33.6349502 C69.3552531,33.6349502 70.8945776,35.6240896 70.8945776,38.9154713 C70.8945776,42.2211634 69.3552531,44.2103028 66.7708824,44.2103028 L66.7708824,44.2103028 Z M83.379502,30.8730516 C81.2894099,30.8730516 79.4817627,31.9320179 78.5496946,33.706502 L78.3237387,33.706502 L78.3237387,31.130638 L75.4004343,31.130638 L75.4004343,51.7661704 L78.4367167,51.7661704 L78.4367167,44.3534064 L78.6767948,44.3534064 C79.4817627,45.9990972 81.2187987,46.9722014 83.4077465,46.9722014 C87.2913636,46.9722014 89.7627562,43.8668543 89.7627562,38.9154713 C89.7627562,33.9640884 87.2913636,30.8730516 83.379502,30.8730516 L83.379502,30.8730516 Z M82.5180452,44.2103028 C79.9760413,44.2103028 78.3802277,42.1782323 78.3802277,38.9297817 C78.3802277,35.6670207 79.9760413,33.6349502 82.5321674,33.6349502 C85.1024158,33.6349502 86.6417404,35.6240896 86.6417404,38.9154713 C86.6417404,42.2211634 85.1024158,44.2103028 82.5180452,44.2103028 L82.5180452,44.2103028 Z M96.1900989,41.1621971 C96.4160548,44.8542688 99.4523372,47.2154774 103.971455,47.2154774 C108.801263,47.2154774 111.823423,44.7397859 111.823423,40.7901279 C111.823423,37.6847808 110.100509,35.9675381 105.920325,34.9801236 L103.674888,34.4220197 C101.019906,33.7923641 99.9466157,32.9480531 99.9466157,31.4740865 C99.9466157,29.6137403 101.613041,28.3973601 104.112678,28.3973601 C106.485215,28.3973601 108.123395,29.5851196 108.419962,31.4883969 L111.498611,31.4883969 C111.315022,28.0109805 108.292862,25.5639098 104.155044,25.5639098 C99.7065376,25.5639098 96.7408664,28.0109805 96.7408664,31.6887419 C96.7408664,34.7225372 98.4214134,36.525642 102.107319,37.3985737 L104.734056,38.0425396 C107.431405,38.6865056 108.617673,39.6309891 108.617673,41.2051282 C108.617673,43.0368537 106.753537,44.3677167 104.211533,44.3677167 C101.48594,44.3677167 99.5935596,43.1227158 99.325237,41.1621971 L96.1900989,41.1621971 Z M114.436899,27.3527042 L114.436899,31.2021898 L111.909017,31.2021898 L111.909017,33.7923641 L114.436899,33.7923641 L114.436899,42.5932326 C114.436899,45.5984073 115.778512,46.8004771 119.153728,46.8004771 C119.746862,46.8004771 120.29763,46.7289253 120.777786,46.6430632 L120.777786,44.0815096 C120.354119,44.1244407 120.114041,44.1530614 119.648007,44.1530614 C118.136927,44.1530614 117.473181,43.4375436 117.473181,41.8061631 L117.473181,33.7923641 L120.919009,33.7923641 L120.919009,31.2021898 L117.473181,31.2021898 L117.473181,27.3527042 L114.436899,27.3527042 Z M128.447025,44.2818546 C125.806166,44.2818546 124.32333,42.3213359 124.32333,38.9154713 C124.32333,35.5382275 125.806166,33.5633984 128.447025,33.5633984 C131.073763,33.5633984 132.570721,35.5382275 132.570721,38.9154713 C132.570721,42.3070255 131.073763,44.2818546 128.447025,44.2818546 L128.447025,44.2818546 Z M128.447025,47.0151325 C132.937899,47.0151325 135.691737,43.9670268 135.691737,38.9154713 C135.691737,33.8925366 132.923777,30.8301205 128.447025,30.8301205 C123.956152,30.8301205 121.188192,33.8925366 121.188192,38.9154713 C121.188192,43.9670268 123.94203,47.0151325 128.447025,47.0151325 L128.447025,47.0151325 Z M137.076577,46.714615 L140.11286,46.714615 L140.11286,37.5130565 C140.11286,35.3235721 141.736918,33.8496055 144.024721,33.8496055 C144.533122,33.8496055 145.46519,33.949778 145.705268,34.0356401 L145.705268,31.0018448 C145.380457,30.9159827 144.801445,30.8730516 144.363655,30.8730516 C142.358296,30.8730516 140.663627,31.9892593 140.225838,33.5204674 L139.999882,33.5204674 L139.999882,31.130638 L137.076577,31.130638 L137.076577,46.714615 Z M152.541295,33.4489156 C154.786732,33.4489156 156.255445,35.037365 156.326056,37.4844358 L148.558822,37.4844358 C148.728289,35.0516754 150.295858,33.4489156 152.541295,33.4489156 L152.541295,33.4489156 Z M156.311934,42.5073705 C155.747044,43.7237507 154.490165,44.3963374 152.654273,44.3963374 C150.225247,44.3963374 148.657678,42.6647844 148.558822,39.9315066 L148.558822,39.7597823 L159.418828,39.7597823 L159.418828,38.6865056 C159.418828,33.7923641 156.834457,30.8301205 152.555417,30.8301205 C148.219889,30.8301205 145.466051,33.9927091 145.466051,38.9727127 C145.466051,43.9527164 148.1634,47.0151325 152.56954,47.0151325 C156.085978,47.0151325 158.543249,45.2978898 159.235239,42.5073705 L156.311934,42.5073705 Z" id="App-Store" fill="#FFFFFF"></path>
                </g>
            </g>
        </g>
    </g>
</svg>