<svg xmlns="http://www.w3.org/2000/svg" width="354" height="271" viewBox="0 0 354 271">
    <defs>
        <linearGradient id="a" x1="5.013%" x2="78.835%" y1="94.059%" y2="28.339%">
            <stop offset="0%" stop-color="#2F4DBF"/>
            <stop offset="100%" stop-color="#2F748C" stop-opacity="0"/>
        </linearGradient>
        <linearGradient id="b" x1="71.894%" x2="50%" y1="0%" y2="82.622%">
            <stop offset="0%" stop-color="#2F4DBF"/>
            <stop offset="100%" stop-color="#2F748C" stop-opacity="0"/>
        </linearGradient>
        <linearGradient id="c" x1="82.141%" x2="24.994%" y1="0%" y2="50%">
            <stop offset="0%" stop-color="#2F4DBF"/>
            <stop offset="100%" stop-color="#2F748C" stop-opacity="0"/>
        </linearGradient>
    </defs>
    <g fill="none" fill-rule="evenodd">
        <path fill="gray" d="M24.86 234.332c.782 0 1.428.264 1.94.79.51.526.767 1.18.767 1.963v9.564c0 1.053-.467 1.865-1.399 2.437-2.948 1.835-6.181 2.752-9.7 2.752-2.978 0-5.73-.73-8.257-2.188-2.526-1.46-4.526-3.43-6-5.91C.737 241.257 0 238.542 0 235.595c0-2.948.737-5.662 2.21-8.144 1.475-2.481 3.475-4.452 6.001-5.91 2.527-1.46 5.279-2.188 8.257-2.188 2.978 0 5.564.601 7.76 1.804.451.24.79.557 1.015.948.226.39.338.812.338 1.263 0 .752-.248 1.406-.744 1.963-.496.556-1.105.834-1.827.834-.451 0-.948-.12-1.49-.36a12.77 12.77 0 0 0-5.052-1.038c-1.925 0-3.7.488-5.324 1.466a10.79 10.79 0 0 0-3.858 3.948c-.947 1.654-1.42 3.459-1.42 5.414 0 1.955.473 3.76 1.42 5.414a10.79 10.79 0 0 0 3.858 3.948c1.624.977 3.399 1.466 5.324 1.466.842 0 1.744-.075 2.707-.226.962-.15 1.804-.346 2.526-.586v-5.866h-4.24c-.783 0-1.437-.255-1.963-.767-.527-.51-.79-1.158-.79-1.94s.263-1.428.79-1.94c.526-.51 1.18-.767 1.962-.767h7.4zm29.326 4.422c-.03.722-.316 1.308-.857 1.76a2.87 2.87 0 0 1-1.895.676h-14.89c.362 1.775 1.189 3.166 2.482 4.174 1.294 1.007 2.753 1.511 4.377 1.511 1.233 0 2.195-.113 2.887-.338.692-.226 1.241-.467 1.647-.722.406-.256.684-.429.835-.52.541-.27 1.052-.405 1.534-.405.631 0 1.173.225 1.624.677.451.45.677.977.677 1.579 0 .812-.421 1.549-1.264 2.21-.842.692-1.97 1.279-3.383 1.76a13.22 13.22 0 0 1-4.287.722c-2.526 0-4.73-.526-6.61-1.58-1.88-1.052-3.33-2.503-4.353-4.353-1.023-1.85-1.534-3.933-1.534-6.249 0-2.586.541-4.857 1.624-6.812 1.083-1.956 2.512-3.452 4.286-4.49 1.775-1.037 3.67-1.556 5.685-1.556 1.985 0 3.858.541 5.617 1.624 1.76 1.083 3.166 2.542 4.219 4.376a11.765 11.765 0 0 1 1.579 5.956zM42.77 231.76c-3.489 0-5.55 1.639-6.181 4.918h11.82v-.316c-.12-1.264-.736-2.346-1.85-3.249-1.112-.902-2.375-1.353-3.789-1.353zm27.567 14.527c.42 0 .804.204 1.15.61.346.406.519.94.519 1.601 0 .812-.444 1.497-1.33 2.053-.888.556-1.888.835-3.001.835-1.865 0-3.437-.399-4.715-1.196-1.278-.797-1.917-2.489-1.917-5.076v-12.452h-2.076c-.722 0-1.323-.24-1.805-.722-.48-.481-.721-1.083-.721-1.804 0-.692.24-1.271.721-1.737.482-.467 1.083-.7 1.805-.7h2.076v-2.887c0-.782.263-1.437.79-1.963.525-.526 1.18-.79 1.962-.79.752 0 1.383.264 1.895.79.511.526.767 1.18.767 1.963v2.887h3.203c.722 0 1.323.24 1.805.722.48.481.722 1.083.722 1.805 0 .692-.241 1.27-.722 1.737-.482.466-1.083.7-1.805.7h-3.203v12.226c0 .631.165 1.09.496 1.376.33.286.782.429 1.353.429.241 0 .572-.06.993-.18.36-.151.707-.227 1.038-.227zm40.65-26.483c.812 0 1.474.24 1.985.722.512.48.767 1.112.767 1.894 0 .783-.255 1.407-.767 1.873-.51.466-1.173.7-1.985.7h-7.083v23.64a2.56 2.56 0 0 1-.857 1.963c-.572.527-1.279.79-2.12.79-.843 0-1.535-.263-2.076-.79-.542-.526-.812-1.18-.812-1.962v-23.642h-7.084c-.812 0-1.474-.24-1.985-.722-.511-.481-.767-1.113-.767-1.895 0-.752.263-1.368.79-1.85.526-.48 1.18-.721 1.962-.721h20.032zm19.716 6.993c2.978 0 5.039.91 6.182 2.73 1.143 1.82 1.714 4.338 1.714 7.557v11.55c0 .782-.256 1.436-.767 1.962-.511.527-1.158.79-1.94.79s-1.429-.263-1.94-.79c-.511-.526-.767-1.18-.767-1.962v-11.55c0-1.655-.323-2.956-.97-3.903-.647-.948-1.782-1.421-3.406-1.421-1.685 0-3 .504-3.948 1.511-.948 1.008-1.421 2.279-1.421 3.813v11.55c0 .782-.256 1.436-.767 1.962-.512.527-1.158.79-1.94.79s-1.43-.263-1.94-.79c-.512-.526-.767-1.18-.767-1.962v-27.883c0-.782.255-1.436.767-1.962.51-.527 1.158-.79 1.94-.79s1.428.263 1.94.79c.511.526.767 1.18.767 1.962v9.971c.812-1.083 1.842-2.008 3.09-2.775 1.248-.767 2.64-1.15 4.173-1.15zm18.86 21.837c0 .782-.256 1.436-.768 1.962-.51.527-1.158.79-1.94.79s-1.428-.263-1.94-.79c-.51-.526-.767-1.18-.767-1.962V230c0-.782.256-1.436.767-1.962.512-.527 1.158-.79 1.94-.79s1.43.263 1.94.79c.512.526.767 1.18.767 1.962v18.634zm-2.753-24.319c-1.022 0-1.744-.165-2.165-.496-.421-.33-.632-.917-.632-1.76v-.857c0-.842.226-1.428.677-1.76.451-.33 1.173-.496 2.165-.496 1.053 0 1.79.166 2.211.497.421.33.632.917.632 1.76v.857c0 .872-.218 1.466-.654 1.782-.437.315-1.18.473-2.234.473zm21.205 2.482c3.068 0 5.189.91 6.362 2.73 1.173 1.82 1.76 4.338 1.76 7.557v11.55c0 .782-.256 1.436-.767 1.962-.512.527-1.158.79-1.94.79-.783 0-1.43-.263-1.94-.79-.512-.526-.768-1.18-.768-1.962v-11.55c0-1.655-.345-2.956-1.037-3.903-.692-.948-1.88-1.421-3.565-1.421-1.744 0-3.113.504-4.105 1.511-.993 1.008-1.489 2.279-1.489 3.813v11.55c0 .782-.256 1.436-.767 1.962-.511.527-1.158.79-1.94.79s-1.429-.263-1.94-.79c-.511-.526-.767-1.18-.767-1.962V230c0-.782.256-1.436.767-1.962.511-.527 1.158-.79 1.94-.79s1.429.263 1.94.79c.511.526.767 1.18.767 1.962v.767c.812-1.083 1.872-2.015 3.18-2.797 1.31-.782 2.745-1.173 4.31-1.173zm33.974 0c.782 0 1.428.256 1.94.767.511.511.767 1.173.767 1.985v20.077c0 3.67-1.136 6.384-3.407 8.144-2.27 1.76-5.15 2.64-8.64 2.64-.902 0-2.143-.151-3.722-.452-1.579-.3-2.7-.602-3.361-.902-1.474-.632-2.21-1.504-2.21-2.617 0-.21.044-.451.135-.722.18-.662.488-1.166.925-1.511.436-.346.91-.52 1.42-.52.301 0 .587.046.858.136.12.03.865.308 2.233.835 1.369.526 2.61.79 3.722.79 2.226 0 3.888-.444 4.986-1.332 1.098-.887 1.647-2.143 1.647-3.767v-2.166c-.662.933-1.662 1.775-3 2.527a8.656 8.656 0 0 1-4.31 1.128c-2.105 0-4.022-.534-5.752-1.602-1.73-1.068-3.09-2.549-4.083-4.444-.992-1.895-1.489-4.045-1.489-6.452 0-2.406.489-4.564 1.467-6.474.977-1.91 2.316-3.399 4.015-4.466 1.7-1.068 3.587-1.602 5.662-1.602 1.534 0 2.963.316 4.286.947 1.324.632 2.392 1.399 3.204 2.301v-.496c0-.782.255-1.436.767-1.963.51-.526 1.158-.79 1.94-.79zm-9.34 20.077c2.016 0 3.662-.714 4.94-2.143 1.279-1.429 1.918-3.226 1.918-5.392 0-2.165-.639-3.97-1.917-5.414-1.279-1.443-2.925-2.165-4.94-2.165-2.016 0-3.655.722-4.918 2.165-1.264 1.444-1.895 3.249-1.895 5.414 0 2.166.631 3.963 1.895 5.392 1.263 1.429 2.902 2.143 4.917 2.143zm16.062.767c-.27-.36-.406-.812-.406-1.354 0-.782.391-1.443 1.173-1.985.421-.27.857-.406 1.308-.406.632 0 1.234.286 1.805.857.903.933 1.842 1.625 2.82 2.076.978.451 2.158.677 3.542.677 2.346-.09 3.519-.978 3.519-2.662 0-.873-.399-1.534-1.196-1.985-.797-.452-2.038-.903-3.722-1.354-1.744-.481-3.166-.962-4.263-1.444-1.098-.48-2.046-1.21-2.843-2.188-.797-.977-1.195-2.293-1.195-3.948 0-1.443.413-2.7 1.24-3.767.827-1.068 1.91-1.895 3.249-2.481 1.338-.587 2.76-.88 4.263-.88 1.534 0 3.068.286 4.602.857 1.534.572 2.737 1.414 3.61 2.527.39.48.586 1.022.586 1.624 0 .692-.286 1.263-.857 1.714-.421.331-.902.497-1.444.497-.662 0-1.203-.21-1.624-.632-.542-.662-1.24-1.188-2.098-1.58-.857-.39-1.827-.586-2.91-.586-2.286 0-3.429.827-3.429 2.482 0 .662.21 1.195.632 1.601.42.406.955.722 1.601.948.647.225 1.557.504 2.73.835 1.624.45 2.978.917 4.06 1.398 1.083.481 2 1.218 2.753 2.21.752.994 1.128 2.302 1.128 3.926 0 1.474-.437 2.76-1.309 3.858-.872 1.098-1.993 1.932-3.361 2.504a10.85 10.85 0 0 1-4.219.857c-1.985 0-3.835-.331-5.549-.993a9.222 9.222 0 0 1-4.196-3.203zm49.764-27.837c2.828 0 5.257.699 7.287 2.098 2.03 1.398 3.58 3.293 4.647 5.684 1.068 2.392 1.602 5.061 1.602 8.009 0 2.947-.534 5.617-1.602 8.008-1.068 2.391-2.617 4.286-4.647 5.685-2.03 1.398-4.46 2.098-7.287 2.098h-10.783c-.782 0-1.436-.263-1.962-.79-.527-.526-.79-1.18-.79-1.962v-26.078c0-.782.263-1.436.79-1.963.526-.526 1.18-.79 1.962-.79h10.783zm-.45 26.393c2.706 0 4.736-1 6.09-3s2.03-4.534 2.03-7.602c0-3.068-.684-5.602-2.053-7.603-1.368-2-3.39-3-6.068-3h-7.444v21.205h7.444zm42.274-6.858c0 2.407-.541 4.565-1.624 6.475-1.083 1.91-2.564 3.391-4.444 4.444s-3.948 1.579-6.204 1.579c-2.286 0-4.361-.526-6.226-1.58-1.865-1.052-3.339-2.533-4.422-4.443-1.082-1.91-1.624-4.068-1.624-6.475 0-2.406.542-4.564 1.624-6.474 1.083-1.91 2.557-3.399 4.422-4.466 1.865-1.068 3.94-1.602 6.226-1.602 2.256 0 4.324.534 6.204 1.602 1.88 1.067 3.361 2.556 4.444 4.466 1.083 1.91 1.624 4.068 1.624 6.474zm-5.414 0c0-1.473-.308-2.79-.925-3.947-.617-1.158-1.444-2.053-2.481-2.685-1.038-.631-2.189-.947-3.452-.947s-2.414.316-3.451.947c-1.038.632-1.865 1.527-2.482 2.685-.616 1.158-.925 2.474-.925 3.947 0 1.474.309 2.783.925 3.926.617 1.143 1.444 2.03 2.482 2.662 1.037.631 2.188.947 3.451.947s2.414-.316 3.452-.947c1.037-.632 1.864-1.52 2.481-2.662.617-1.143.925-2.452.925-3.926zm22.83-12.542c3.067 0 5.188.91 6.36 2.73 1.174 1.82 1.76 4.338 1.76 7.557v11.55c0 .782-.255 1.436-.767 1.962-.511.527-1.158.79-1.94.79s-1.428-.263-1.94-.79c-.511-.526-.767-1.18-.767-1.962v-11.55c0-1.655-.346-2.956-1.037-3.903-.692-.948-1.88-1.421-3.565-1.421-1.744 0-3.113.504-4.105 1.511-.993 1.008-1.49 2.279-1.49 3.813v11.55c0 .782-.255 1.436-.766 1.962-.512.527-1.158.79-1.94.79s-1.429-.263-1.94-.79c-.512-.526-.767-1.18-.767-1.962V230c0-.782.255-1.436.767-1.962.511-.527 1.158-.79 1.94-.79s1.428.263 1.94.79c.511.526.767 1.18.767 1.962v.767c.812-1.083 1.872-2.015 3.18-2.797 1.309-.782 2.745-1.173 4.31-1.173zm35.642 11.956c-.03.722-.316 1.308-.857 1.76a2.87 2.87 0 0 1-1.895.676h-14.889c.36 1.775 1.188 3.166 2.481 4.174 1.294 1.007 2.753 1.511 4.377 1.511 1.233 0 2.196-.113 2.887-.338.692-.226 1.241-.467 1.647-.722.406-.256.684-.429.835-.52.541-.27 1.052-.405 1.534-.405.631 0 1.173.225 1.624.677.451.45.677.977.677 1.579 0 .812-.421 1.549-1.264 2.21-.842.692-1.97 1.279-3.383 1.76a13.22 13.22 0 0 1-4.286.722c-2.527 0-4.73-.526-6.61-1.58-1.88-1.052-3.331-2.503-4.354-4.353-1.023-1.85-1.534-3.933-1.534-6.249 0-2.586.541-4.857 1.624-6.812 1.083-1.956 2.512-3.452 4.286-4.49 1.775-1.037 3.67-1.556 5.685-1.556 1.985 0 3.858.541 5.617 1.624 1.76 1.083 3.166 2.542 4.219 4.376a11.765 11.765 0 0 1 1.579 5.956zm-11.415-6.993c-3.489 0-5.55 1.639-6.18 4.918h11.82v-.316c-.12-1.264-.737-2.346-1.85-3.249-1.113-.902-2.376-1.353-3.79-1.353zM324.87 270.032c-.408 0-.831-.099-1.269-.297a4.745 4.745 0 0 1-1.233-.819h-.054l-.126.9H321V257h1.476v3.492l-.036 1.584a6.064 6.064 0 0 1 1.296-.873 3.185 3.185 0 0 1 1.44-.351c.564 0 1.062.105 1.494.315.432.21.795.51 1.089.9.294.39.516.858.666 1.404.15.546.225 1.155.225 1.827 0 .744-.102 1.41-.306 1.998a4.595 4.595 0 0 1-.828 1.494c-.348.408-.75.717-1.206.927-.456.21-.936.315-1.44.315zm-.252-1.242c.36 0 .693-.081.999-.243.306-.162.57-.39.792-.684.222-.294.396-.657.522-1.089.126-.432.189-.918.189-1.458 0-.48-.042-.918-.126-1.314a2.936 2.936 0 0 0-.405-1.017 1.94 1.94 0 0 0-.72-.657c-.294-.156-.645-.234-1.053-.234-.708 0-1.488.396-2.34 1.188v4.59c.384.336.765.573 1.143.711s.711.207.999.207zm9.882 1.242a4.283 4.283 0 0 1-1.647-.315c-.51-.21-.954-.51-1.332-.9a4.167 4.167 0 0 1-.891-1.431c-.216-.564-.324-1.206-.324-1.926s.111-1.365.333-1.935c.222-.57.516-1.053.882-1.449a3.827 3.827 0 0 1 1.251-.909c.468-.21.954-.315 1.458-.315.552 0 1.047.096 1.485.288.438.192.804.468 1.098.828.294.36.519.792.675 1.296a5.71 5.71 0 0 1 .234 1.692c0 .156-.003.309-.009.459-.006.15-.021.279-.045.387h-5.904c.06.936.351 1.677.873 2.223.522.546 1.203.819 2.043.819.42 0 .807-.063 1.161-.189a5.137 5.137 0 0 0 1.017-.495l.522.972c-.384.24-.81.45-1.278.63-.468.18-1.002.27-1.602.27zm-2.754-5.292h4.68c0-.888-.189-1.563-.567-2.025-.378-.462-.909-.693-1.593-.693-.312 0-.609.06-.891.18-.282.12-.537.297-.765.531a2.91 2.91 0 0 0-.567.855 3.86 3.86 0 0 0-.297 1.152zm10.89 5.292c-.468 0-.861-.072-1.179-.216a2.028 2.028 0 0 1-.774-.594 2.314 2.314 0 0 1-.423-.918 5.23 5.23 0 0 1-.126-1.188v-4.842h-1.296v-1.116l1.368-.09.18-2.448h1.242v2.448h2.358v1.206h-2.358v4.86c0 .54.099.957.297 1.251.198.294.549.441 1.053.441.156 0 .324-.024.504-.072.18-.048.342-.102.486-.162l.288 1.116c-.24.084-.501.159-.783.225a3.664 3.664 0 0 1-.837.099zm5.346 0c-.732 0-1.341-.216-1.827-.648-.486-.432-.729-1.044-.729-1.836 0-.96.426-1.695 1.278-2.205.852-.51 2.214-.867 4.086-1.071 0-.276-.027-.546-.081-.81a2.026 2.026 0 0 0-.279-.702 1.466 1.466 0 0 0-.549-.495c-.234-.126-.531-.189-.891-.189-.504 0-.978.096-1.422.288-.444.192-.84.408-1.188.648l-.576-1.026a9.55 9.55 0 0 1 1.494-.765 4.988 4.988 0 0 1 1.944-.369c1.068 0 1.842.327 2.322.981.48.654.72 1.527.72 2.619v5.364h-1.224l-.126-1.044h-.054c-.42.348-.87.645-1.35.891-.48.246-.996.369-1.548.369zm.432-1.188c.42 0 .816-.099 1.188-.297.372-.198.768-.489 1.188-.873v-2.43c-.732.096-1.347.21-1.845.342-.498.132-.9.288-1.206.468-.306.18-.528.387-.666.621a1.48 1.48 0 0 0-.207.765c0 .504.15.864.45 1.08.3.216.666.324 1.098.324z"/>
        <path fill="#0090E9" d="M264.524 72.765c-.81-5.586-2.152-10.654-4.103-15.493l-.01-.029-.013-.027c-1.36-3.176-3.488-5.801-6.15-7.589a15.56 15.56 0 0 0-8.709-2.651c-3.215 0-6.406.975-9.23 2.819l-.036.023-.034.024-53.412 37.092-14.05-20.523a15.255 15.255 0 0 0-12.595-6.611c-3.049-.001-6 .9-8.53 2.604-6.939 4.67-8.751 14.064-4.042 20.946l22.608 33.017c.298.438.618.768.852 1.01.086.089.17.173.222.234.089.106.18.216.269.326.306.375.686.842 1.178 1.272.219.192.423.322.553.401.923.743 1.7 1.262 2.504 1.674.176.091.333.152.47.198 1.033.491 1.995.84 2.938 1.066a15.357 15.357 0 0 0 5.806.27c.266-.036.486-.093.648-.132.04-.01.078-.02.118-.028l.202-.04c.36-.068.77-.147 1.217-.28.232-.07.42-.148.543-.2l.057-.023.049-.017c.442-.152.943-.325 1.47-.573.284-.133.516-.273.704-.386a5.21 5.21 0 0 1 .175-.102c.077-.043.151-.083.225-.122.228-.12.503-.267.797-.456l.235-.129.116-.111 47.51-33.082c.028.653.04 1.285.04 1.904-.003 32.177-26.404 58.353-58.854 58.35-32.45-.003-58.85-26.184-58.847-58.36.003-32.177 26.406-58.351 58.858-58.348 4.516.001 9.323.586 13.903 1.691 4.626 1.117 9.046 2.775 12.785 4.793 0 0 2.24.958 2.788 1.122 1.413.419 2.875.631 4.34.631 3.19 0 6.372-1.034 8.957-2.914a14.892 14.892 0 0 0 5.544-7.8 14.92 14.92 0 0 0-.548-10.114 15.13 15.13 0 0 0-5.427-6.588l-.019-.15-1.341-.697a90.693 90.693 0 0 0-19.53-7.458A87.584 87.584 0 0 0 176.277.525C127.053.521 87.004 40.223 87 89.03c-.004 48.806 40.037 88.515 89.26 88.52 49.222.005 89.268-39.7 89.274-88.505 0-6.36-.32-11.532-1.009-16.28"/>
        <path fill="url(#a)" d="M95.895 87.915l9.425 14.574c.257.375.592.656.883.994.383.446.73.932 1.163 1.31.114.1.254.156.37.252.666.54 1.355 1.044 2.104 1.428.085.043.178.056.263.098.805.39 1.639.721 2.503.929a12.526 12.526 0 0 0 4.712.22c.21-.031.413-.097.62-.136.385-.077.771-.14 1.15-.255.16-.047.312-.125.47-.18.419-.144.839-.285 1.245-.478.245-.114.475-.27.712-.402.31-.171.623-.322.92-.522l31.687-21.983-13.574-26.652-44.653 30.803z" transform="translate(87 -.925)"/>
        <path fill="url(#b)" d="M156.562 82.252l-8.43 5.713s.765 7.873-2.257 18.493c-2.637 9.265-8.089 16.511-8.089 16.511l31.27 7.131c5.273-10.69 9.678-25.35 9.349-38.012-.214-8.167-6.514-12.374-13.188-12.374-2.98 0-6.034.84-8.655 2.538" transform="translate(87 -1)"/>
        <path fill="url(#c)" d="M21.938 32.122C16.746 38.097 9.815 48.96 9.797 49.862c-.53 26.527 21.51 30.677 21.51 30.677s.171-14.174 15.071-30.517C57.642 37.67 73.472 32.678 83.682 31.839c20.089-1.65 33.326 6.786 33.326 6.786s-19.399-26.104-52.95-26.104c-3.503 0-7.161.285-10.966.913-16.741 2.764-23.238 9.582-31.154 18.688z" transform="translate(87 -1)"/>
    </g>
</svg>
